<svg class="border shadow-md" viewBox="0 0 1320.391111111111 742.72" style="width: 1320.39px; height: 742.72px;" xmlns="http://www.w3.org/2000/svg" preserveAspectRatio="none"><rect class="bg" id="bg" x="0" y="0" width="1320.391111111111" height="742.72" fill="#ffffff"/><path d="M 0 -74.272 L 0 -74.27&#10;                L 88.03 -37.14&#10;                L 264.0782222222222 -74.27 L 264.0782222222222 -74.27&#10;                L 372.08 -19.27&#10;                L 528.1564444444444 -74.27 L 528.1564444444444 -74.27&#10;                L 616.18 -14.27&#10;                L 792.2346666666667 -74.27 L 792.2346666666667 -74.27&#10;                L 880.26 -37.14&#10;                L 1056.312888888889 -74.27 L 1056.312888888889 -74.27&#10;                L 1144.34 -35.27&#10;                L 1320.391111111111 -74.27 L 1320.391111111111 -74.27&#10;                L 1408.42 -33.27&#10;                L 1584.4693333333332 -74.27  V 742.72 H 0 V -74.27 Z" fill="#5268FA"/><path d="M 0 0 L 0 0.00&#10;                L 173.00 37.14&#10;                L 264.0782222222222 0.00 L 264.0782222222222 0.00&#10;                L 352.10 39.00&#10;                L 528.1564444444444 0.00 L 528.1564444444444 0.00&#10;                L 690.16 37.14&#10;                L 792.2346666666667 0.00 L 792.2346666666667 0.00&#10;                L 893.23 61.00&#10;                L 1056.312888888889 0.00 L 1056.312888888889 0.00&#10;                L 1144.34 71.00&#10;                L 1320.391111111111 0.00 L 1320.391111111111 0.00&#10;                L 1433.39 48.00&#10;                L 1584.4693333333332 0.00  V 742.72 H 0 V 0.00 Z" fill="#515feb"/><path d="M 0 74.272 L 0 74.27&#10;                L 136.00 118.27&#10;                L 264.0782222222222 74.27 L 264.0782222222222 74.27&#10;                L 385.08 146.27&#10;                L 528.1564444444444 74.27 L 528.1564444444444 74.27&#10;                L 674.16 111.41&#10;                L 792.2346666666667 74.27 L 792.2346666666667 74.27&#10;                L 899.23 121.27&#10;                L 1056.312888888889 74.27 L 1056.312888888889 74.27&#10;                L 1144.34 140.27&#10;                L 1320.391111111111 74.27 L 1320.391111111111 74.27&#10;                L 1413.39 111.41&#10;                L 1584.4693333333332 74.27  V 742.72 H 0 V 74.27 Z" fill="#5056dc"/><path d="M 0 148.544 L 0 148.54&#10;                L 106.00 190.54&#10;                L 264.0782222222222 148.54 L 264.0782222222222 148.54&#10;                L 402.08 185.68&#10;                L 528.1564444444444 148.54 L 528.1564444444444 148.54&#10;                L 669.16 185.68&#10;                L 792.2346666666667 148.54 L 792.2346666666667 148.54&#10;                L 880.26 207.54&#10;                L 1056.312888888889 148.54 L 1056.312888888889 148.54&#10;                L 1191.31 185.68&#10;                L 1320.391111111111 148.54 L 1320.391111111111 148.54&#10;                L 1408.42 185.68&#10;                L 1584.4693333333332 148.54  V 742.72 H 0 V 148.54 Z" fill="#4f4dcd"/><path d="M 0 222.81600000000003 L 0 222.82&#10;                L 88.03 259.95&#10;                L 264.0782222222222 222.82 L 264.0782222222222 222.82&#10;                L 355.08 259.95&#10;                L 528.1564444444444 222.82 L 528.1564444444444 222.82&#10;                L 616.18 284.82&#10;                L 792.2346666666667 222.82 L 792.2346666666667 222.82&#10;                L 880.26 259.95&#10;                L 1056.312888888889 222.82 L 1056.312888888889 222.82&#10;                L 1144.34 259.95&#10;                L 1320.391111111111 222.82 L 1320.391111111111 222.82&#10;                L 1499.39 278.82&#10;                L 1584.4693333333332 222.82  V 742.72 H 0 V 222.82 Z" fill="#4e44be"/><path d="M 0 297.088 L 0 297.09&#10;                L 197.00 368.09&#10;                L 264.0782222222222 297.09 L 264.0782222222222 297.09&#10;                L 372.08 343.09&#10;                L 528.1564444444444 297.09 L 528.1564444444444 297.09&#10;                L 702.16 334.22&#10;                L 792.2346666666667 297.09 L 792.2346666666667 297.09&#10;                L 880.26 334.22&#10;                L 1056.312888888889 297.09 L 1056.312888888889 297.09&#10;                L 1144.34 334.22&#10;                L 1320.391111111111 297.09 L 1320.391111111111 297.09&#10;                L 1505.39 355.09&#10;                L 1584.4693333333332 297.09  V 742.72 H 0 V 297.09 Z" fill="#4d3baf"/><path d="M 0 371.36 L 0 371.36&#10;                L 150.00 430.36&#10;                L 264.0782222222222 371.36 L 264.0782222222222 371.36&#10;                L 378.08 435.36&#10;                L 528.1564444444444 371.36 L 528.1564444444444 371.36&#10;                L 713.16 408.50&#10;                L 792.2346666666667 371.36 L 792.2346666666667 371.36&#10;                L 932.23 408.50&#10;                L 1056.312888888889 371.36 L 1056.312888888889 371.36&#10;                L 1249.31 408.50&#10;                L 1320.391111111111 371.36 L 1320.391111111111 371.36&#10;                L 1408.42 408.50&#10;                L 1584.4693333333332 371.36  V 742.72 H 0 V 371.36 Z" fill="#4c32a0"/><path d="M 0 445.63200000000006 L 0 445.63&#10;                L 125.00 489.63&#10;                L 264.0782222222222 445.63 L 264.0782222222222 445.63&#10;                L 404.08 482.77&#10;                L 528.1564444444444 445.63 L 528.1564444444444 445.63&#10;                L 616.18 496.63&#10;                L 792.2346666666667 445.63 L 792.2346666666667 445.63&#10;                L 880.26 482.77&#10;                L 1056.312888888889 445.63 L 1056.312888888889 445.63&#10;                L 1249.31 482.77&#10;                L 1320.391111111111 445.63 L 1320.391111111111 445.63&#10;                L 1408.42 482.77&#10;                L 1584.4693333333332 445.63  V 742.72 H 0 V 445.63 Z" fill="#4b2991"/><path d="M 0 519.904 L 0 519.90&#10;                L 117.00 557.04&#10;                L 264.0782222222222 519.90 L 264.0782222222222 519.90&#10;                L 451.08 557.04&#10;                L 528.1564444444444 519.90 L 528.1564444444444 519.90&#10;                L 671.16 571.90&#10;                L 792.2346666666667 519.90 L 792.2346666666667 519.90&#10;                L 880.26 557.04&#10;                L 1056.312888888889 519.90 L 1056.312888888889 519.90&#10;                L 1144.34 591.90&#10;                L 1320.391111111111 519.90 L 1320.391111111111 519.90&#10;                L 1474.39 557.04&#10;                L 1584.4693333333332 519.90  V 742.72 H 0 V 519.90 Z" fill="#4a2082"/><path d="M 0 594.176 L 0 594.18&#10;                L 88.03 631.31&#10;                L 264.0782222222222 594.18 L 264.0782222222222 594.18&#10;                L 374.08 663.18&#10;                L 528.1564444444444 594.18 L 528.1564444444444 594.18&#10;                L 640.16 631.31&#10;                L 792.2346666666667 594.18 L 792.2346666666667 594.18&#10;                L 946.23 662.18&#10;                L 1056.312888888889 594.18 L 1056.312888888889 594.18&#10;                L 1144.34 665.18&#10;                L 1320.391111111111 594.18 L 1320.391111111111 594.18&#10;                L 1515.39 640.18&#10;                L 1584.4693333333332 594.18  V 742.72 H 0 V 594.18 Z" fill="#491773"/><path d="M 0 668.4480000000001 L 0 668.45&#10;                L 88.03 705.58&#10;                L 264.0782222222222 668.45 L 264.0782222222222 668.45&#10;                L 352.10 705.58&#10;                L 528.1564444444444 668.45 L 528.1564444444444 668.45&#10;                L 632.16 740.45&#10;                L 792.2346666666667 668.45 L 792.2346666666667 668.45&#10;                L 914.23 705.58&#10;                L 1056.312888888889 668.45 L 1056.312888888889 668.45&#10;                L 1144.34 734.45&#10;                L 1320.391111111111 668.45 L 1320.391111111111 668.45&#10;                L 1410.39 718.45&#10;                L 1584.4693333333332 668.45  V 742.72 H 0 V 668.45 Z" fill="#480e64"/></svg>